# xmcd
#
# Track frame offsets:
#	750
#	16598
#	32005
#	46390
#	63777
#	75276
#	95517
#	110340
#	123822
#	137593
#	150752
#	165406
#	180875
#	197502
#	211993
#	227311
#	240108
#	253503
#	267911
#	283452
#	311250
#
# Disc length: 4158 seconds
#
# Revision: 1
# Processed by: cddbd v1.5.2PL0 Copyright (c) Steve Scherf et al.
# Submitted via: EasyCDDAExtractor 2010.4.0.0
#
DISCID=eb103415
DTITLE=Lasse Stefanz - Det här är bara början CD 1
DYEAR=2003
DGENRE=Pop
TTITLE0=ingenting mer
TTITLE1=peppelinos bar
TTITLE2=från rum till rum
TTITLE3=flickan från karlaplan
TTITLE4=åh julie
TTITLE5=en gåva från himlen
TTITLE6=låt en morgon vakna
TTITLE7=det här är bara början
TTITLE8=i ett fotoalbum
TTITLE9=ensam i ett regn
TTITLE10=månen över uppland
TTITLE11=världens lyckligaste par
TTITLE12=främling
TTITLE13=är det kärlek du behöver
TTITLE14=dom spelar vår sång
TTITLE15=årets skiftningar
TTITLE16=elaine
TTITLE17=en blomma bland asfalt
TTITLE18=du försvann som en vind
TTITLE19=oklahoma
TTITLE20=Dataspår
EXTD=YEAR: 2003
EXTT0=
EXTT1=
EXTT2=
EXTT3=
EXTT4=
EXTT5=
EXTT6=
EXTT7=
EXTT8=
EXTT9=
EXTT10=
EXTT11=
EXTT12=
EXTT13=
EXTT14=
EXTT15=
EXTT16=
EXTT17=
EXTT18=
EXTT19=
EXTT20=
PLAYORDER=
